<svg width="306" height="57" viewBox="0 0 306 57" fill="none" xmlns="http://www.w3.org/2000/svg">
<path d="M55.2812 37.0137C65.0489 20.6096 51.4483 0.850098 29.8111 0.850098C8.05025 0.850098 -5.55029 20.6096 4.21737 37.0137C-2.83018 45.0915 3.72281 56.5247 15.5924 56.5247C20.4144 56.5247 25.2364 54.412 27.9565 50.311C28.822 50.4353 30.6766 50.4353 31.5421 50.311C34.2622 54.412 39.0842 56.5247 43.9062 56.5247C55.7758 56.5247 62.3288 44.9672 55.2812 37.0137ZM13.3668 26.699V19.4911H18.4361V26.699H13.3668ZM40.197 37.3866C33.2731 40.4934 23.3818 39.0021 16.9524 33.2855V30.1787C23.7527 35.5224 32.6549 37.0137 40.197 34.404V37.3866ZM21.5271 26.699V19.4911H42.0516V26.699H21.5271Z" fill="white"/>
<path d="M68.1313 20.7246L70.2451 43.1659H76.4962L80.2739 35.0259C81.1734 32.9571 81.758 31.2931 82.9273 28.1451H83.0173C83.0173 30.8434 83.0622 33.0021 83.1971 35.3407L83.8717 43.1659H90.0779L100.961 20.7246H94.3054L90.4827 30.0789C89.5383 32.6873 88.7288 34.8909 88.0092 37.3644H87.9193C88.0542 34.9809 87.9642 32.7772 87.8743 30.1688L87.3346 20.7246H81.9379L77.5306 30.4836C76.5862 32.7323 75.5518 34.9809 74.7873 37.3644H74.6973C74.8323 34.8909 74.9222 32.7772 74.9222 30.2138L74.8772 20.7246H68.1313Z" fill="white"/>
<path d="M104.784 52.2503L106.628 42.7611H106.718C107.482 43.2109 109.056 43.6606 110.9 43.6606C118.68 43.6606 123.897 36.5099 123.897 28.6847C123.897 24.0975 121.559 20.1849 116.702 20.1849C114.003 20.1849 111.35 21.5341 109.506 23.9626H109.416L109.821 20.7246H103.84C103.57 23.0182 103.03 26.7509 102.49 29.4043L98.173 52.2503H104.784ZM108.427 32.7323C109.236 28.3249 111.53 25.5366 114.003 25.5366C116.162 25.5366 116.882 27.4255 116.882 29.2244C116.882 33.6317 114.138 38.6686 110.585 38.6686C109.281 38.6686 108.292 38.2639 107.572 37.5443L108.427 32.7323Z" fill="white"/>
<path d="M131.902 10.5608L127.36 33.2719C127.09 34.6211 126.865 35.9703 126.865 37.3644C126.865 41.367 129.519 43.6606 134.826 43.6606C144.899 43.6606 149.667 35.2957 149.667 28.0101C149.667 24.0076 147.553 20.1849 142.876 20.1849C140.132 20.1849 137.614 21.3992 135.95 23.333H135.86L138.558 10.5608H131.902ZM134.331 31.8778C135.095 27.9652 137.434 25.5366 139.818 25.5366C141.841 25.5366 142.741 27.2456 142.741 29.4043C142.741 33.3619 139.997 38.6686 136.175 38.6686C134.646 38.6686 133.701 37.8141 133.656 36.1951C133.611 35.2507 133.791 34.4412 133.881 33.7216L134.331 31.8778Z" fill="white"/>
<path d="M169.994 37.0946C168.195 37.9491 166.127 38.5337 163.698 38.5337C161.764 38.5337 160.28 37.9491 159.381 36.7798C158.931 36.1502 158.706 35.1158 158.706 34.4862C167.701 34.711 173.232 32.6423 173.232 26.9308C173.232 22.7484 169.994 20.2299 165.452 20.2299C157.312 20.2299 152.365 27.3355 152.365 34.1714C152.365 40.0178 155.648 43.6156 162.079 43.6156C164.552 43.6156 167.79 43.2109 170.444 41.8617L169.994 37.0946ZM167.071 26.9308C167.071 28.9546 164.507 29.6741 159.381 29.6291C159.83 27.5154 161.584 24.997 164.642 24.997C166.171 25.0419 167.071 25.8065 167.071 26.9308Z" fill="white"/>
<path d="M174.626 51.3509C176.155 52.2054 178.944 52.79 181.912 52.79C184.88 52.79 188.163 52.2054 190.592 50.2715C193.29 48.1129 194.549 44.4251 195.314 40.2876L198.687 21.8039C196.348 20.8145 193.56 20.2299 190.367 20.2299C180.608 20.2299 175.301 27.5604 175.301 35.0259C175.346 39.3882 178.044 43.031 182.497 43.031C185.15 43.031 187.174 41.9966 188.928 39.703H189.018L188.658 41.5918C187.758 46.0891 185.285 47.5732 181.957 47.5732C180.068 47.5732 177.325 47.0785 176.065 46.314L174.626 51.3509ZM190.412 31.6979C189.737 35.5205 187.533 37.9041 185.375 37.9041C183.351 37.9041 182.362 36.2401 182.362 33.9915C182.362 29.7191 185.195 25.2668 189.197 25.2668C190.097 25.2668 191.086 25.4467 191.581 25.6716L190.412 31.6979Z" fill="white"/>
<path d="M206.872 43.1659L211.144 20.7246H204.533L200.261 43.1659H206.872ZM208.671 17.8913C210.784 17.8913 212.583 16.4972 212.583 14.1586C212.583 12.1798 211.189 10.9206 209.3 10.9206C207.276 10.9206 205.522 12.4496 205.477 14.6983C205.477 16.6771 206.827 17.8913 208.671 17.8913Z" fill="white"/>
<path d="M219.014 43.1659L220.903 33.182C221.803 28.235 224.321 25.5366 226.48 25.5366C228.144 25.5366 228.683 26.661 228.683 28.19C228.683 28.9995 228.593 29.944 228.458 30.7085L226.12 43.1659H232.731L235.204 30.1238C235.384 28.9995 235.564 27.3355 235.564 26.3012C235.564 22.4335 233.495 20.1849 229.853 20.1849C226.884 20.1849 224.051 21.4891 221.982 24.4123H221.892L222.342 20.6796H216.451C216.181 22.6584 215.821 25.1319 215.237 27.9652L212.403 43.1209H219.014V43.1659Z" fill="white"/>
<path d="M244.873 43.1659L246.762 33.182C247.662 28.235 250.18 25.5366 252.339 25.5366C254.003 25.5366 254.543 26.661 254.543 28.19C254.543 28.9995 254.453 29.944 254.318 30.7085L251.979 43.1659H258.59L261.064 30.1238C261.243 28.9995 261.423 27.3355 261.423 26.3012C261.423 22.4335 259.355 20.1849 255.712 20.1849C252.744 20.1849 249.91 21.4891 247.842 24.4123H247.752L248.201 20.6796H242.31C242.04 22.6584 241.68 25.1319 241.096 27.9652L238.262 43.1209H244.873V43.1659Z" fill="white"/>
<path d="M282.381 37.0946C280.582 37.9491 278.513 38.5337 276.084 38.5337C274.151 38.5337 272.666 37.9491 271.767 36.7798C271.317 36.1502 271.092 35.1158 271.092 34.4862C280.087 34.711 285.619 32.6423 285.619 26.9308C285.619 22.7484 282.38 20.2299 277.838 20.2299C269.698 20.2299 264.751 27.3355 264.751 34.1714C264.751 40.0178 268.034 43.6156 274.465 43.6156C276.939 43.6156 280.177 43.2109 282.83 41.8617L282.381 37.0946ZM279.457 26.9308C279.457 28.9546 276.894 29.6741 271.767 29.6291C272.217 27.5154 273.971 24.997 277.029 24.997C278.513 25.0419 279.457 25.8065 279.457 26.9308Z" fill="white"/>
<path d="M293.669 43.1659L295.243 34.801C296.052 30.3937 298.031 26.616 302.258 26.616C302.618 26.616 302.978 26.616 303.293 26.661L304.597 20.2299C304.192 20.1849 303.787 20.1849 303.338 20.1849C300.28 20.1849 297.761 22.2986 296.187 25.2668H296.052C296.187 23.6928 296.322 22.2087 296.457 20.6796H290.745C290.521 22.6134 290.251 26.3911 289.621 29.7641L287.103 43.1209H293.669V43.1659Z" fill="white"/>
</svg>
